<svg width="80" height="88" viewBox="0 0 80 88" fill="none" xmlns="http://www.w3.org/2000/svg">
<g filter="url(#filter0_i_129_4)">
<path d="M71.2194 35.6603L71.2081 35.9177L71.3226 36.1485L78.8078 51.2322C79.2678 52.1615 78.8781 53.3102 77.8331 53.7934C77.833 53.7935 77.8329 53.7935 77.8328 53.7936L72.1214 56.4307L72.1206 56.431C70.7199 57.0793 69.792 58.452 69.792 59.9919V68.8622C69.792 69.892 68.8991 70.8136 67.6904 70.8136H52.3688C50.1502 70.8136 48.2644 72.5356 48.2644 74.765V85.0506C48.2644 85.679 47.9322 86.2906 47.3419 86.6642C46.7442 87.038 45.9833 87.105 45.3262 86.8388L45.3249 86.8383L15.4019 74.7695L15.4004 74.7689C14.615 74.4536 14.1381 73.7362 14.1381 72.9818V60.8405V60.3543L13.7557 60.054C5.9552 53.9281 1 44.6812 1 34.3451C1 15.9768 16.6816 1 36.129 1C55.5763 1 71.2551 15.9767 71.2551 34.3451C71.2551 34.7758 71.239 35.2115 71.2194 35.6603ZM10.5618 34.3451C10.5618 47.8459 22.0576 58.7012 36.129 58.7012C50.2006 58.7012 61.6933 47.8457 61.6933 34.3451C61.6933 20.8472 50.2005 9.99183 36.129 9.99183C22.0577 9.99183 10.5618 20.8471 10.5618 34.3451Z" fill="#8390FA" stroke="#F88DAD" stroke-width="2"/>
<g filter="url(#filter1_i_129_4)">
<path d="M38.182 25.1429C38.182 26.4053 37.2051 27.4287 36.0002 27.4287C34.7952 27.4287 33.8184 26.4053 33.8184 25.1429C33.8184 23.8806 34.7952 22.8572 36.0002 22.8572C37.2051 22.8572 38.182 23.8806 38.182 25.1429Z" fill="#8390FA"/>
</g>
<path d="M37.782 25.1429C37.782 26.2021 36.9669 27.0287 36.0002 27.0287C35.0335 27.0287 34.2184 26.2021 34.2184 25.1429C34.2184 24.0838 35.0335 23.2572 36.0002 23.2572C36.9669 23.2572 37.782 24.0838 37.782 25.1429Z" stroke="#F88DAD" stroke-width="0.8"/>
<g filter="url(#filter2_i_129_4)">
<path d="M27.3475 28.4706C27.0935 29.269 27.5053 30.132 28.2674 30.3981C28.5224 30.4868 28.7794 30.5693 29.0367 30.6501C29.5075 30.7981 30.1661 30.9952 30.9201 31.1927C31.7661 31.4143 32.7724 31.6473 33.7867 31.8058C33.7198 33.1661 33.5572 34.1421 33.4061 34.7897L30.3355 41.2234C29.9762 41.9761 30.2675 42.8915 30.986 43.2679C31.7045 43.6443 32.5782 43.339 32.9375 42.5864L36.0001 36.1694L39.0628 42.5864C39.4221 43.339 40.2957 43.6443 41.0142 43.2679C41.7328 42.8915 42.024 41.9761 41.6647 41.2234L38.5942 34.7897C38.443 34.1421 38.2804 33.1661 38.2135 31.8058C39.2279 31.6473 40.2342 31.4143 41.0801 31.1927C41.8342 30.9952 42.4928 30.7981 42.9635 30.6501C43.219 30.5698 43.4742 30.4877 43.7274 30.4C44.4745 30.1403 44.9021 29.2542 44.6528 28.4706C44.3988 27.6723 43.5751 27.2408 42.8131 27.5068C42.5859 27.5855 42.3569 27.659 42.1277 27.731C41.6893 27.8688 41.0752 28.0526 40.3747 28.2361C38.9406 28.6117 37.2669 28.9525 36.0001 28.9525C34.7334 28.9525 33.0597 28.6117 31.6256 28.2361C30.9251 28.0526 30.311 27.8688 29.8726 27.731C29.6462 27.6599 29.4202 27.5868 29.1956 27.5097C28.4399 27.2479 27.6008 27.6746 27.3475 28.4706Z" fill="#8390FA"/>
</g>
<path d="M27.7287 28.5919L27.7287 28.5919C27.9166 28.0014 28.5301 27.7025 29.0646 27.8877L29.0657 27.888C29.2948 27.9667 29.5243 28.0409 29.7527 28.1126L29.7527 28.1126C30.1956 28.2518 30.8161 28.4376 31.5243 28.623C32.9639 29.0001 34.6792 29.3525 36.0001 29.3525C37.321 29.3525 39.0364 29.0001 40.476 28.623L40.476 28.623C41.1842 28.4376 41.8046 28.2518 42.2476 28.1127L42.2476 28.1126C42.478 28.0402 42.7113 27.9654 42.944 27.8848L42.9449 27.8845C43.4806 27.6975 44.0815 27.9942 44.2716 28.5919L44.2716 28.5919C44.4588 29.1802 44.1273 29.8372 43.5965 30.022C43.3485 30.1079 43.0976 30.1887 42.8436 30.2685L42.8435 30.2685C42.3774 30.415 41.7252 30.6103 40.9788 30.8058C40.1405 31.0253 39.1483 31.2549 38.1518 31.4106L37.7963 31.4661L37.814 31.8254C37.882 33.2082 38.0477 34.2081 38.2046 34.8806L38.2145 34.9228L38.2332 34.962L41.3037 41.3957C41.5747 41.9634 41.3478 42.6416 40.8286 42.9135C40.3208 43.1796 39.6902 42.9723 39.4238 42.4141L36.3611 35.9971L36.0001 35.2407L35.6391 35.9971L32.5765 42.4141C32.3101 42.9723 31.6794 43.1796 31.1716 42.9136C30.6524 42.6416 30.4256 41.9633 30.6965 41.3957L33.7671 34.962L33.7858 34.9228L33.7956 34.8806C33.9526 34.2081 34.1182 33.2082 34.1863 31.8254L34.2039 31.4661L33.8485 31.4106C32.852 31.2549 31.8597 31.0253 31.0214 30.8058C30.2751 30.6103 29.6228 30.415 29.1566 30.2685L29.1565 30.2685C28.9007 30.1882 28.6483 30.107 28.3991 30.0204C27.8542 29.83 27.5362 29.1968 27.7287 28.5919Z" stroke="#F88DAD" stroke-width="0.8"/>
<g filter="url(#filter3_i_129_4)">
<path fill-rule="evenodd" clip-rule="evenodd" d="M52 33.5238C52 42.7812 44.8365 50.2857 36 50.2857C27.1634 50.2857 20 42.7812 20 33.5238C20 24.2665 27.1634 16.7619 36 16.7619C44.8365 16.7619 52 24.2665 52 33.5238ZM22.919 33.5238C22.919 41.0922 28.7756 47.2277 36 47.2277C43.2244 47.2277 49.081 41.0922 49.081 33.5238C49.081 25.9554 43.2244 19.8199 36 19.8199C28.7756 19.8199 22.919 25.9554 22.919 33.5238Z" fill="#8390FA"/>
</g>
<path d="M51.6 33.5238C51.6 42.5781 44.5983 49.8857 36 49.8857C27.4017 49.8857 20.4 42.5781 20.4 33.5238C20.4 24.4697 27.4017 17.1619 36 17.1619C44.5983 17.1619 51.6 24.4697 51.6 33.5238ZM22.519 33.5238C22.519 41.2954 28.5373 47.6277 36 47.6277C43.4627 47.6277 49.481 41.2954 49.481 33.5238C49.481 25.7522 43.4627 19.4199 36 19.4199C28.5373 19.4199 22.519 25.7522 22.519 33.5238Z" stroke="#F88DAD" stroke-width="0.8"/>
</g>
<defs>
<filter id="filter0_i_129_4" x="0" y="0" width="80" height="92" filterUnits="userSpaceOnUse" color-interpolation-filters="sRGB">
<feFlood flood-opacity="0" result="BackgroundImageFix"/>
<feBlend mode="normal" in="SourceGraphic" in2="BackgroundImageFix" result="shape"/>
<feColorMatrix in="SourceAlpha" type="matrix" values="0 0 0 0 0 0 0 0 0 0 0 0 0 0 0 0 0 0 127 0" result="hardAlpha"/>
<feOffset dy="4"/>
<feGaussianBlur stdDeviation="2"/>
<feComposite in2="hardAlpha" operator="arithmetic" k2="-1" k3="1"/>
<feColorMatrix type="matrix" values="0 0 0 0 0 0 0 0 0 0 0 0 0 0 0 0 0 0 0.25 0"/>
<feBlend mode="normal" in2="shape" result="effect1_innerShadow_129_4"/>
</filter>
<filter id="filter1_i_129_4" x="33.8184" y="22.8572" width="4.36377" height="8.57144" filterUnits="userSpaceOnUse" color-interpolation-filters="sRGB">
<feFlood flood-opacity="0" result="BackgroundImageFix"/>
<feBlend mode="normal" in="SourceGraphic" in2="BackgroundImageFix" result="shape"/>
<feColorMatrix in="SourceAlpha" type="matrix" values="0 0 0 0 0 0 0 0 0 0 0 0 0 0 0 0 0 0 127 0" result="hardAlpha"/>
<feOffset dy="4"/>
<feGaussianBlur stdDeviation="2"/>
<feComposite in2="hardAlpha" operator="arithmetic" k2="-1" k3="1"/>
<feColorMatrix type="matrix" values="0 0 0 0 0 0 0 0 0 0 0 0 0 0 0 0 0 0 0.25 0"/>
<feBlend mode="normal" in2="shape" result="effect1_innerShadow_129_4"/>
</filter>
<filter id="filter2_i_129_4" x="27.2725" y="27.4283" width="17.4517" height="20.0008" filterUnits="userSpaceOnUse" color-interpolation-filters="sRGB">
<feFlood flood-opacity="0" result="BackgroundImageFix"/>
<feBlend mode="normal" in="SourceGraphic" in2="BackgroundImageFix" result="shape"/>
<feColorMatrix in="SourceAlpha" type="matrix" values="0 0 0 0 0 0 0 0 0 0 0 0 0 0 0 0 0 0 127 0" result="hardAlpha"/>
<feOffset dy="4"/>
<feGaussianBlur stdDeviation="2"/>
<feComposite in2="hardAlpha" operator="arithmetic" k2="-1" k3="1"/>
<feColorMatrix type="matrix" values="0 0 0 0 0 0 0 0 0 0 0 0 0 0 0 0 0 0 0.25 0"/>
<feBlend mode="normal" in2="shape" result="effect1_innerShadow_129_4"/>
</filter>
<filter id="filter3_i_129_4" x="20" y="16.7619" width="32" height="37.5238" filterUnits="userSpaceOnUse" color-interpolation-filters="sRGB">
<feFlood flood-opacity="0" result="BackgroundImageFix"/>
<feBlend mode="normal" in="SourceGraphic" in2="BackgroundImageFix" result="shape"/>
<feColorMatrix in="SourceAlpha" type="matrix" values="0 0 0 0 0 0 0 0 0 0 0 0 0 0 0 0 0 0 127 0" result="hardAlpha"/>
<feOffset dy="4"/>
<feGaussianBlur stdDeviation="2"/>
<feComposite in2="hardAlpha" operator="arithmetic" k2="-1" k3="1"/>
<feColorMatrix type="matrix" values="0 0 0 0 0 0 0 0 0 0 0 0 0 0 0 0 0 0 0.25 0"/>
<feBlend mode="normal" in2="shape" result="effect1_innerShadow_129_4"/>
</filter>
</defs>
</svg>
