<svg width="32" height="32" viewBox="0 0 32 32" fill="none" xmlns="http://www.w3.org/2000/svg">
<g filter="url(#filter0_i_3_8)">
<path d="M16.9083 23.3946C16.6751 23.6497 16.3456 23.7949 16 23.7949C15.6544 23.7949 15.3248 23.6497 15.0917 23.3946L8.52752 16.2151C8.06885 15.7135 8.1037 14.935 8.60537 14.4763C9.10704 14.0176 9.88553 14.0524 10.3442 14.5541L14.7692 19.394V1.23077C14.7692 0.55104 15.3202 0 16 0C16.6797 0 17.2307 0.55104 17.2307 1.23077V19.394L21.6558 14.5541C22.1144 14.0524 22.8929 14.0176 23.3946 14.4763C23.8962 14.935 23.931 15.7135 23.4724 16.2151L16.9083 23.3946Z" fill="#F8333C"/>
<path d="M2.46154 20.9231C2.46154 20.2434 1.91052 19.6923 1.23077 19.6923C0.551041 19.6923 8.5982e-07 20.2434 8.5982e-07 20.9231V21.0132C-3.19607e-05 23.2575 -6.48988e-05 25.0664 0.191213 26.4891C0.38981 27.9662 0.814655 29.2098 1.80242 30.1975C2.79019 31.1854 4.03387 31.6103 5.51098 31.8088C6.9337 32 8.74263 32 10.9869 32H21.0132C23.2574 32 25.0663 32 26.4891 31.8088C27.9662 31.6103 29.2098 31.1854 30.1977 30.1975C31.1854 29.2098 31.6103 27.9662 31.8088 26.4891C32 25.0664 32 23.2575 32 21.0132V20.9231C32 20.2434 31.4489 19.6923 30.7692 19.6923C30.0895 19.6923 29.5385 20.2434 29.5385 20.9231C29.5385 23.2786 29.5358 24.9215 29.3693 26.1611C29.2073 27.3653 28.9113 28.0028 28.457 28.457C28.0028 28.9113 27.3653 29.2073 26.1611 29.3693C24.9214 29.5359 23.2786 29.5385 20.9231 29.5385H11.0769C8.72138 29.5385 7.07852 29.5359 5.83897 29.3693C4.63483 29.2073 3.99716 28.9113 3.54299 28.457C3.08882 28.0028 2.7927 27.3653 2.63081 26.1611C2.46415 24.9215 2.46154 23.2786 2.46154 20.9231Z" fill="#F8333C"/>
</g>
<defs>
<filter id="filter0_i_3_8" x="0" y="0" width="32" height="36" filterUnits="userSpaceOnUse" color-interpolation-filters="sRGB">
<feFlood flood-opacity="0" result="BackgroundImageFix"/>
<feBlend mode="normal" in="SourceGraphic" in2="BackgroundImageFix" result="shape"/>
<feColorMatrix in="SourceAlpha" type="matrix" values="0 0 0 0 0 0 0 0 0 0 0 0 0 0 0 0 0 0 127 0" result="hardAlpha"/>
<feOffset dy="4"/>
<feGaussianBlur stdDeviation="2"/>
<feComposite in2="hardAlpha" operator="arithmetic" k2="-1" k3="1"/>
<feColorMatrix type="matrix" values="0 0 0 0 0 0 0 0 0 0 0 0 0 0 0 0 0 0 0.25 0"/>
<feBlend mode="normal" in2="shape" result="effect1_innerShadow_3_8"/>
</filter>
</defs>
</svg>
