<svg width="80" height="80" viewBox="0 0 80 80" fill="none" xmlns="http://www.w3.org/2000/svg">
<path fill-rule="evenodd" clip-rule="evenodd" d="M6.32237 2.82258C17.4486 0.939635 28.7135 -0.00454561 39.9979 1.64528e-05C51.4734 1.64528e-05 62.7273 0.968222 73.6776 2.82258C75.4515 3.12888 77.0596 4.05336 78.2169 5.43212C79.3742 6.81088 80.0059 8.55486 80 10.3549V14.638C79.9993 17.9019 78.702 21.0319 76.3936 23.3395L51.0303 48.7016C50.4589 49.2733 50.0058 49.952 49.6967 50.6989C49.3877 51.4457 49.2288 52.2462 49.2292 53.0544V65.0626C49.2299 67.3487 48.5938 69.5897 47.3923 71.5346C46.1909 73.4795 44.4714 75.0513 42.4268 76.0739L35.2182 79.676C34.7491 79.9102 34.2279 80.0206 33.7041 79.9968C33.1803 79.973 32.6712 79.8158 32.2253 79.54C31.7793 79.2642 31.4113 78.8791 31.156 78.4211C30.9007 77.9631 30.7667 77.4475 30.7667 76.9232V53.0544C30.7653 51.4229 30.1159 49.8587 28.9615 48.7057L3.60634 23.3354C1.29792 21.0278 0.000697111 17.8978 0 14.6339V10.3549C0 6.6749 2.62167 3.45028 6.32237 2.82258Z" fill="#F8333C"/>
</svg>
