<svg width="64" height="64" viewBox="0 0 64 64" fill="none" xmlns="http://www.w3.org/2000/svg">
<rect x="0.5" y="0.5" width="63" height="63" rx="31.5" stroke="#F8333C"/>
<path d="M12 46.7437L12.3333 46.3374L28.0588 20.2551L28.0922 19.979L21.1608 8.59566C21.0339 8.3875 20.8353 8.21949 20.5932 8.1154C20.3511 8.01132 20.0777 7.97643 19.8117 8.01567C19.5457 8.05491 19.3005 8.16629 19.1108 8.33406C18.9212 8.50183 18.7967 8.71749 18.7549 8.95053L12 46.7437Z" fill="#FFC24A"/>
<path d="M12.1963 46.4352L12.4473 46.0066L28.01 20.1951L21.0963 8.76715C20.9823 8.56841 20.7977 8.40732 20.5702 8.30801C20.3426 8.2087 20.0844 8.17653 19.8342 8.2163C19.584 8.25607 19.3553 8.36566 19.1823 8.52863C19.0094 8.69161 18.9014 8.8992 18.8747 9.12031L12.1963 46.4352Z" fill="#FFA712"/>
<path d="M33.1449 28.5886L38.3057 23.9598L33.143 15.352C33.0293 15.1668 32.8604 15.0119 32.6541 14.904C32.4478 14.796 32.2118 14.739 31.9714 14.739C31.731 14.739 31.495 14.796 31.2887 14.904C31.0824 15.0119 30.9135 15.1668 30.7998 15.352L28.041 19.9499V20.3425L33.1449 28.5886Z" fill="#F4BD62"/>
<path d="M33.0531 28.4L38.0707 23.9084L33.0531 15.5423C32.9709 15.3612 32.8307 15.2047 32.6491 15.0918C32.4676 14.9788 32.2526 14.9142 32.03 14.9057C31.8074 14.8972 31.5867 14.9451 31.3946 15.0438C31.2025 15.1425 31.0471 15.2876 30.9472 15.4617L28.1746 20.1402L28.0923 20.3785L33.0531 28.4Z" fill="#FFA50E"/>
<path d="M12.0039 46.7454L12.1549 46.6117L12.7019 46.418L32.8196 28.8937L33.0745 28.2869L28.0568 19.9242L12.0039 46.7454Z" fill="#F6820C"/>
<path d="M33.7882 55.583L52 46.7043L46.7961 18.707C46.7588 18.5097 46.66 18.3251 46.5106 18.1736C46.3612 18.0221 46.1669 17.9095 45.9491 17.8483C45.7313 17.787 45.4984 17.7793 45.276 17.8262C45.0536 17.873 44.8502 17.9726 44.6882 18.1139L12 46.7437L30.1039 55.5813C30.6667 55.8559 31.3006 56 31.9451 56C32.5896 56 33.2234 55.8559 33.7863 55.5813" fill="#FDE068"/>
<path d="M51.8335 46.6305L46.6728 18.8441C46.6636 18.6553 46.5907 18.4731 46.4631 18.3206C46.3355 18.1681 46.1591 18.0521 45.9561 17.9873C45.7531 17.9226 45.5327 17.9119 45.3227 17.9567C45.1128 18.0014 44.9227 18.0997 44.7767 18.2389L12.1963 46.6905L30.1002 55.4338C30.6586 55.7061 31.2873 55.8491 31.9267 55.8491C32.566 55.8491 33.1948 55.7061 33.7531 55.4338L51.8335 46.6305Z" fill="#FCCA3F"/>
<path d="M33.7882 55.3155C33.2254 55.5901 32.5916 55.7342 31.9471 55.7342C31.3025 55.7342 30.6687 55.5901 30.1059 55.3155L12.149 46.61L12 46.7437L30.1039 55.5812C30.6667 55.8558 31.3006 56 31.9451 56C32.5896 56 33.2234 55.8558 33.7863 55.5812L52 46.7042L51.9549 46.4642L33.7882 55.3155Z" fill="#EEAB37"/>
</svg>
