<svg width="48" height="48" viewBox="0 0 48 48" fill="none" xmlns="http://www.w3.org/2000/svg">
<rect x="0.5" y="0.5" width="47" height="47" rx="23.5" stroke="#F8333C"/>
<path d="M12 33.8291L12.2 33.5583L21.6353 16.17L21.6553 15.986L17.4965 8.39711C17.4203 8.25833 17.3012 8.14633 17.1559 8.07694C17.0107 8.00755 16.8466 7.98429 16.687 8.01045C16.5274 8.03661 16.3803 8.11086 16.2665 8.22271C16.1527 8.33455 16.078 8.47833 16.0529 8.63369L12 33.8291Z" fill="#FFC24A"/>
<path d="M12.1177 33.6234L12.2683 33.3377L21.6059 16.1301L17.4577 8.51142C17.3893 8.37892 17.2785 8.27153 17.142 8.20532C17.0055 8.13912 16.8506 8.11766 16.7004 8.14418C16.5503 8.1707 16.4131 8.24375 16.3093 8.3524C16.2055 8.46105 16.1408 8.59945 16.1247 8.74685L12.1177 33.6234Z" fill="#FFA712"/>
<path d="M24.6871 21.7257L27.7836 18.6399L24.6859 12.9013C24.6178 12.7778 24.5164 12.6746 24.3926 12.6026C24.2688 12.5307 24.1272 12.4926 23.983 12.4926C23.8387 12.4926 23.6972 12.5307 23.5734 12.6026C23.4496 12.6746 23.3482 12.7778 23.28 12.9013L21.6248 15.9666V16.2283L24.6871 21.7257Z" fill="#F4BD62"/>
<path d="M24.6317 21.6L27.6423 18.6056L24.6317 13.0282C24.5825 12.9074 24.4983 12.8031 24.3894 12.7278C24.2805 12.6525 24.1514 12.6094 24.0179 12.6038C23.8843 12.5981 23.7519 12.6301 23.6367 12.6958C23.5214 12.7616 23.4282 12.8584 23.3682 12.9744L21.7047 16.0934L21.6553 16.2523L24.6317 21.6Z" fill="#FFA50E"/>
<path d="M12.0024 33.8303L12.093 33.7411L12.4213 33.612L24.4919 21.9292L24.6448 21.5246L21.6342 15.9495L12.0024 33.8303Z" fill="#F6820C"/>
<path d="M25.0729 39.722L36 33.8029L32.8776 15.138C32.8553 15.0064 32.796 14.8834 32.7064 14.7824C32.6167 14.6814 32.5001 14.6063 32.3695 14.5655C32.2388 14.5246 32.0991 14.5195 31.9656 14.5508C31.8321 14.582 31.7101 14.6484 31.6129 14.7426L12 33.8291L22.8624 39.7208C23.2001 39.9039 23.5803 40 23.9671 40C24.3538 40 24.7341 39.9039 25.0718 39.7208" fill="#FDE068"/>
<path d="M35.9 33.7537L32.8036 15.2294C32.7981 15.1036 32.7543 14.9821 32.6778 14.8804C32.6012 14.7788 32.4954 14.7015 32.3736 14.6583C32.2518 14.6151 32.1195 14.6079 31.9935 14.6378C31.8676 14.6677 31.7536 14.7331 31.6659 14.826L12.1177 33.7937L22.86 39.6225C23.195 39.8041 23.5723 39.8994 23.9559 39.8994C24.3395 39.8994 24.7168 39.8041 25.0518 39.6225L35.9 33.7537Z" fill="#FCCA3F"/>
<path d="M25.0729 39.5437C24.7352 39.7267 24.355 39.8228 23.9682 39.8228C23.5815 39.8228 23.2012 39.7267 22.8635 39.5437L12.0894 33.74L12 33.8291L22.8624 39.7208C23.2001 39.9039 23.5803 40 23.9671 40C24.3538 40 24.7341 39.9039 25.0718 39.7208L36 33.8028L35.9729 33.6428L25.0729 39.5437Z" fill="#EEAB37"/>
</svg>
