<svg width="76" height="68" viewBox="0 0 76 68" fill="none" xmlns="http://www.w3.org/2000/svg">
<g filter="url(#filter0_d_117_6)">
<path d="M7.10701 27.6672C6.39866 25.603 6 23.5297 6 21.4771C6 3.08734 23.6005 -5.27187 38 9.77403C52.3994 -5.27187 70 3.08675 70 21.477C70 23.5296 69.6013 25.603 68.8931 27.6672H59.2355L58.8771 27.6669C57.1309 27.6641 55.5798 27.6616 54.1686 28.2727C52.7571 28.8837 51.7213 30.0065 50.5546 31.2709L50.3152 31.5303L47.0214 35.0882C46.6925 35.4435 46.1213 35.4333 45.8083 35.0643L34.4445 21.6723C33.9978 21.1457 33.52 20.5823 33.0528 20.1641C32.5085 19.6771 31.704 19.1294 30.5791 19.0637C29.4542 18.998 28.588 19.4482 27.9877 19.8683C27.4722 20.2291 26.9285 20.7329 26.4204 21.2038L21.5255 25.7361C20.0158 27.134 19.7008 27.3723 19.3713 27.5002C19.0418 27.6283 18.6448 27.6672 16.56 27.6672H7.10701Z" fill="#881C21"/>
<path d="M6.39292 28.6672L6.16115 27.9918C5.4238 25.8431 5 23.6594 5 21.4771C5 11.9653 9.56995 4.85207 16.2252 2.16016C22.6818 -0.451396 30.7728 1.22664 38 8.34932C45.2271 1.22664 53.3181 -0.451545 59.7747 2.15992C66.43 4.85173 71 11.9649 71 21.477C71 23.6594 70.5761 25.8431 69.839 27.9917L69.6073 28.6672H68.8931H59.2355H59.2347L58.8763 28.6669H58.8755C57.0827 28.664 55.7519 28.6768 54.566 29.1903L54.5659 29.1904C53.3829 29.7025 52.4869 30.6514 51.2896 31.9489C51.2895 31.9489 51.2895 31.949 51.2895 31.949L51.0502 32.2084L51.049 32.2097L47.7553 35.7676L47.7552 35.7676C47.0222 36.5593 45.7502 36.5416 45.0458 35.7113C45.0458 35.7112 45.0457 35.7112 45.0457 35.7111L33.682 22.3193L33.6819 22.3192C33.223 21.7782 32.7917 21.2725 32.3861 20.9094L6.39292 28.6672ZM6.39292 28.6672H7.10701M6.39292 28.6672H7.10701M7.10701 28.6672H16.56C17.5986 28.6672 18.2501 28.6578 18.688 28.6297C19.1416 28.6006 19.436 28.5479 19.7331 28.4324M7.10701 28.6672L27.1 21.9373M27.1 21.9373L27.0998 21.9375L22.2049 26.4699L21.5469 25.7592L22.2049 26.4699C21.4529 27.1662 20.9737 27.5971 20.6357 27.8711C20.2844 28.156 20.0318 28.3165 19.7331 28.4324M27.1 21.9373C27.6219 21.4537 28.1128 21.0013 28.5611 20.6876C29.0688 20.3323 29.7115 20.0147 30.5208 20.062C31.3293 20.1092 31.9267 20.4985 32.3859 20.9092L27.1 21.9373ZM19.7331 28.4324L19.3715 27.5007L19.7339 28.4321C19.7336 28.4322 19.7334 28.4323 19.7331 28.4324Z" stroke="#F8333C" stroke-width="2"/>
</g>
<g filter="url(#filter1_d_117_6)">
<path d="M68.8924 27.6668H59.2351L58.8767 27.6661C57.1301 27.6637 55.5794 27.6612 54.1679 28.2722C52.7567 28.8832 51.7205 30.006 50.5541 31.2704L50.3144 31.5296L47.021 35.0878C46.692 35.4431 46.1208 35.4328 45.8079 35.0638L34.4437 21.6718C33.9973 21.1452 33.5196 20.5818 33.052 20.1636C32.508 19.6766 31.7032 19.1289 30.5785 19.0632C29.4537 18.9975 28.5875 19.4477 27.9872 19.8678C27.4717 20.2286 26.928 20.7324 26.4198 21.2032L21.525 25.7357C20.0153 27.1335 19.7003 27.3715 19.3708 27.4997C19.0413 27.6279 18.6442 27.6668 16.5595 27.6668H7.10645C10.4215 37.3265 20.5192 46.7807 28.277 52.9311C32.5394 56.3104 34.6706 58.0001 37.9996 58.0001C41.3285 58.0001 43.4597 56.3104 47.7218 52.9311C55.4796 46.7807 65.5775 37.3265 68.8924 27.6668Z" fill="#F8333C"/>
<path d="M69.8382 27.9913C69.9431 27.6858 69.8939 27.3485 69.7062 27.0856C69.5185 26.8228 69.2154 26.6668 68.8924 26.6668H59.236H59.2351L58.8784 26.6661L58.8781 26.6661L58.7734 26.666C57.1056 26.6633 55.3738 26.6605 53.7706 27.3545L53.7705 27.3545C52.1632 28.0505 51.0016 29.3101 49.8863 30.5195L49.82 30.5914L49.8191 30.5923L49.5806 30.8503L49.5803 30.8506L46.4312 34.2528L35.2065 21.0252L35.2062 21.0248L35.1838 20.9984C34.754 20.4913 34.2387 19.8834 33.7187 19.4182C33.0893 18.8548 32.0775 18.149 30.6368 18.0649C29.1964 17.9807 28.1067 18.5636 27.4138 19.0485L27.4138 19.0485C26.8418 19.4489 26.2566 19.9912 25.7676 20.4443L25.7404 20.4695L25.7401 20.4697L20.8456 25.0019C20.8456 25.0019 20.8456 25.0019 20.8456 25.0019C20.0879 25.7034 19.6549 26.0906 19.3755 26.3171C19.1188 26.5252 19.0447 26.5537 19.0116 26.5664C19.0105 26.5669 19.0093 26.5673 19.0083 26.5677C19.0072 26.5681 19.0062 26.5685 19.0051 26.569C18.9715 26.5822 18.8963 26.6117 18.5593 26.6334C18.195 26.6567 17.6056 26.6668 16.5595 26.6668H7.10645C6.78344 26.6668 6.48033 26.8228 6.29263 27.0856C6.10492 27.3485 6.05575 27.6859 6.16059 27.9914C7.88062 33.0034 11.3331 37.8988 15.2827 42.2842C19.2411 46.6794 23.7509 50.6189 27.6557 53.7147C27.7281 53.772 27.7998 53.829 27.8711 53.8855C31.9244 57.0999 34.3205 59.0001 37.9996 59.0001C41.6788 59.0001 44.075 57.0997 48.1283 53.885C48.1993 53.8287 48.2709 53.7719 48.3431 53.7147C52.248 50.6189 56.7578 46.6794 60.7162 42.2842C64.6658 37.8988 68.1183 33.0033 69.8382 27.9913ZM46.5705 34.417L46.5704 34.4168L46.5705 34.417Z" stroke="#681519" stroke-width="2" stroke-linejoin="round"/>
</g>
<defs>
<filter id="filter0_d_117_6" x="0" y="-0.00344849" width="76" height="45.3514" filterUnits="userSpaceOnUse" color-interpolation-filters="sRGB">
<feFlood flood-opacity="0" result="BackgroundImageFix"/>
<feColorMatrix in="SourceAlpha" type="matrix" values="0 0 0 0 0 0 0 0 0 0 0 0 0 0 0 0 0 0 127 0" result="hardAlpha"/>
<feOffset dy="4"/>
<feGaussianBlur stdDeviation="2"/>
<feComposite in2="hardAlpha" operator="out"/>
<feColorMatrix type="matrix" values="0 0 0 0 0 0 0 0 0 0 0 0 0 0 0 0 0 0 0.25 0"/>
<feBlend mode="normal" in2="BackgroundImageFix" result="effect1_dropShadow_117_6"/>
<feBlend mode="normal" in="SourceGraphic" in2="effect1_dropShadow_117_6" result="shape"/>
</filter>
<filter id="filter1_d_117_6" x="1.10645" y="17.0567" width="73.7859" height="50.9434" filterUnits="userSpaceOnUse" color-interpolation-filters="sRGB">
<feFlood flood-opacity="0" result="BackgroundImageFix"/>
<feColorMatrix in="SourceAlpha" type="matrix" values="0 0 0 0 0 0 0 0 0 0 0 0 0 0 0 0 0 0 127 0" result="hardAlpha"/>
<feOffset dy="4"/>
<feGaussianBlur stdDeviation="2"/>
<feComposite in2="hardAlpha" operator="out"/>
<feColorMatrix type="matrix" values="0 0 0 0 0 0 0 0 0 0 0 0 0 0 0 0 0 0 0.25 0"/>
<feBlend mode="normal" in2="BackgroundImageFix" result="effect1_dropShadow_117_6"/>
<feBlend mode="normal" in="SourceGraphic" in2="effect1_dropShadow_117_6" result="shape"/>
</filter>
</defs>
</svg>
