<svg width="48" height="48" viewBox="0 0 48 48" fill="none" xmlns="http://www.w3.org/2000/svg">
<rect x="0.5" y="0.5" width="47" height="47" rx="23.5" stroke="#F8333C"/>
<path d="M24.0664 14.5508C32.8505 8.15759 28.3422 4 28.3422 4C29.0132 10.6092 21.0841 12.1698 18.9586 16.7115C17.5084 19.8106 19.9518 22.5241 24.0634 25.9443C23.7 25.1868 23.1393 24.4508 22.5718 23.7056C20.636 21.1641 18.6194 18.5165 24.0664 14.5508Z" fill="#E76F00"/>
<path d="M25.4686 27.3463C25.4686 27.3463 28.1113 25.3474 26.0185 23.126C18.9241 15.5898 33.7777 12.1698 33.7777 12.1698C24.7089 16.2656 26.0627 18.6968 28.3422 21.6503C30.7827 24.8173 25.4686 27.3463 25.4686 27.3463Z" fill="#E76F00"/>
<path d="M33.2493 33.307C41.3897 29.4073 37.626 25.6598 34.9989 26.1646C34.3549 26.2881 34.0678 26.3953 34.0678 26.3953C34.0678 26.3953 34.3069 26.05 34.7634 25.9005C39.9606 24.2161 43.9576 30.8686 33.0857 33.5035C33.0857 33.5035 33.2117 33.3998 33.2493 33.307Z" fill="#5382A1"/>
<path d="M16.3106 28.3711C11.2174 27.7441 19.1033 26.0174 19.1033 26.0174C19.1033 26.0174 16.0409 25.827 12.2745 27.5054C7.82095 29.4915 23.2907 30.3947 31.2986 28.4531C32.1311 27.929 33.2818 27.4747 33.2818 27.4747C33.2818 27.4747 30.0049 28.0142 26.7414 28.2681C22.7482 28.5765 18.4611 28.6366 16.3106 28.3711Z" fill="#5382A1"/>
<path d="M18.2486 32.0947C15.4084 31.824 17.2681 30.5549 17.2681 30.5549C9.91872 32.8036 21.3571 35.3537 31.6266 32.5852C30.535 32.2305 29.8409 31.5816 29.8409 31.5816C24.8218 32.4726 21.9214 32.4441 18.2486 32.0947Z" fill="#5382A1"/>
<path d="M19.4859 36.1238C16.6479 35.8231 18.3059 34.9342 18.3059 34.9342C11.6345 36.6527 22.3638 40.2031 30.8577 36.8471C29.4665 36.3483 28.4703 35.7726 28.4703 35.7726C24.6814 36.4336 22.9241 36.4855 19.4859 36.1238Z" fill="#5382A1"/>
<path d="M37.2516 38.1735C37.2516 38.1735 38.4785 39.1055 35.9003 39.8265C30.9975 41.1957 15.4946 41.6092 11.1879 39.8811C9.63979 39.2602 12.543 38.3986 13.4562 38.2177C14.4086 38.0273 14.9529 38.0628 14.9529 38.0628C13.2312 36.9447 3.82465 40.2583 10.1748 41.2073C27.4927 43.7965 41.7436 40.0413 37.2516 38.1735Z" fill="#5382A1"/>
<path d="M40.0001 40.2099C39.7159 43.6184 27.717 44.3354 19.9033 43.8742C14.8058 43.5729 13.7842 42.8197 13.7693 42.8087C18.6479 43.5502 26.8733 43.6852 33.5425 42.5281C39.4538 41.502 40.0001 40.2099 40.0001 40.2099Z" fill="#5382A1"/>
</svg>
