<svg width="64" height="64" viewBox="0 0 64 64" fill="none" xmlns="http://www.w3.org/2000/svg">
<rect x="0.5" y="0.5" width="63" height="63" rx="31.5" stroke="#F8333C"/>
<path d="M52 12H12V52H52V12Z" fill="#FFCA28"/>
<path d="M36.2856 45.2684L39.2306 43.3195C39.4615 44.0446 40.9231 45.7668 42.7692 45.7668C44.6154 45.7668 45.4725 44.7585 45.4725 44.0899C45.4725 42.2682 43.5874 41.6259 42.6819 41.3175C42.5342 41.2672 42.4128 41.2258 42.3296 41.1896C42.2869 41.1711 42.2225 41.1464 42.1398 41.1148C41.1328 40.7301 37.4175 39.3106 37.4175 35.1961C37.4175 30.6642 41.7911 30.1431 42.7802 30.1431C43.4272 30.1431 46.5384 30.2224 48.0878 33.1341L45.2306 35.1282C44.6044 33.8592 43.5636 33.4401 42.9231 33.4401C41.3406 33.4401 41.0109 34.6001 41.0109 35.1282C41.0109 36.6099 42.7302 37.2741 44.1818 37.8348C44.5616 37.9815 44.9231 38.1211 45.2306 38.2665C46.8131 39.0142 49.1428 40.2379 49.1428 44.0899C49.1428 46.0194 47.5245 49.1431 43.4505 49.1431C37.9779 49.1431 36.5274 45.8575 36.2856 45.2684Z" fill="#3E3E3E"/>
<path d="M22 45.6554L25.0696 43.7076C25.31 44.4323 26.2447 45.7686 27.6007 45.7686C28.9569 45.7686 29.651 44.3758 29.651 43.7076V30.5718H33.426V43.7076C33.4871 45.5195 32.4823 49.1432 28.0474 49.1432C23.97 49.1432 22.2749 46.7199 22 45.6554Z" fill="#3E3E3E"/>
</svg>
