<svg width="40" height="40" viewBox="0 0 40 40" fill="none" xmlns="http://www.w3.org/2000/svg">
<g clip-path="url(#clip0_42_1919)">
<g filter="url(#filter0_d_42_1919)">
<path d="M17.3333 36L26.6667 16L36 36M20 30.6667H33.3333M4 8.65956C7.53849 8.21923 11.1009 7.99896 14.6667 8M14.6667 8C16.6578 8 18.6364 8.06756 20.5938 8.20267M14.6667 8V4M20.5938 8.20267C18.5351 17.6142 12.3378 25.4756 4 29.7813M20.5938 8.20267C22.1867 8.31111 23.7671 8.464 25.3333 8.65956M17.1751 23.7618C14.2595 20.7976 11.9487 17.2942 10.3716 13.4471" stroke="#F8333C" stroke-width="2" stroke-linecap="round" stroke-linejoin="round" shape-rendering="crispEdges"/>
</g>
</g>
<defs>
<filter id="filter0_d_42_1919" x="-1" y="3" width="42" height="42.0002" filterUnits="userSpaceOnUse" color-interpolation-filters="sRGB">
<feFlood flood-opacity="0" result="BackgroundImageFix"/>
<feColorMatrix in="SourceAlpha" type="matrix" values="0 0 0 0 0 0 0 0 0 0 0 0 0 0 0 0 0 0 127 0" result="hardAlpha"/>
<feOffset dy="4"/>
<feGaussianBlur stdDeviation="2"/>
<feComposite in2="hardAlpha" operator="out"/>
<feColorMatrix type="matrix" values="0 0 0 0 0 0 0 0 0 0 0 0 0 0 0 0 0 0 0.25 0"/>
<feBlend mode="normal" in2="BackgroundImageFix" result="effect1_dropShadow_42_1919"/>
<feBlend mode="normal" in="SourceGraphic" in2="effect1_dropShadow_42_1919" result="shape"/>
</filter>
<clipPath id="clip0_42_1919">
<rect width="40" height="40" fill="white"/>
</clipPath>
</defs>
</svg>
