<svg width="64" height="64" viewBox="0 0 64 64" fill="none" xmlns="http://www.w3.org/2000/svg">
<rect x="1" y="1" width="62" height="62" rx="31" stroke="#F8333C" stroke-width="2"/>
<g filter="url(#filter0_i_2_752)">
<path fill-rule="evenodd" clip-rule="evenodd" d="M48 48H41.6V36.8016C41.6 33.7296 40.2448 32.0156 37.8144 32.0156C35.1696 32.0156 33.6 33.8016 33.6 36.8016V48H27.2V27.2H33.6V29.5391C33.6 29.5391 35.608 26.0156 40.1328 26.0156C44.6592 26.0156 48 28.7778 48 34.493V48ZM19.9072 23.8734C17.7488 23.8734 16 22.1103 16 19.9359C16 17.7631 17.7488 16 19.9072 16C22.064 16 23.8128 17.7631 23.8128 19.9359C23.8144 22.1103 22.064 23.8734 19.9072 23.8734ZM16 48H24V27.2H16V48Z" fill="#F8333C"/>
</g>
<defs>
<filter id="filter0_i_2_752" x="16" y="16" width="32" height="36" filterUnits="userSpaceOnUse" color-interpolation-filters="sRGB">
<feFlood flood-opacity="0" result="BackgroundImageFix"/>
<feBlend mode="normal" in="SourceGraphic" in2="BackgroundImageFix" result="shape"/>
<feColorMatrix in="SourceAlpha" type="matrix" values="0 0 0 0 0 0 0 0 0 0 0 0 0 0 0 0 0 0 127 0" result="hardAlpha"/>
<feOffset dy="4"/>
<feGaussianBlur stdDeviation="2"/>
<feComposite in2="hardAlpha" operator="arithmetic" k2="-1" k3="1"/>
<feColorMatrix type="matrix" values="0 0 0 0 0 0 0 0 0 0 0 0 0 0 0 0 0 0 0.25 0"/>
<feBlend mode="normal" in2="shape" result="effect1_innerShadow_2_752"/>
</filter>
</defs>
</svg>
