<svg width="64" height="64" viewBox="0 0 64 64" fill="none" xmlns="http://www.w3.org/2000/svg">
<rect x="0.5" y="0.5" width="63" height="63" rx="31.5" stroke="#F8333C"/>
<path d="M34.1646 8.51209C32.8542 7.82777 31.1458 7.83084 29.8343 8.51209C23.2657 11.8782 16.6969 15.2453 10.1271 18.6098C8.84866 19.2343 7.98641 20.5091 8.00016 21.8322V42.1705C7.99093 43.5195 8.89763 44.8066 10.209 45.4225C12.0961 46.3548 13.9295 47.3816 15.8507 48.2518C18.0699 49.2644 20.8463 49.4883 23.0927 48.4323C24.9161 47.5572 25.726 45.6106 25.7236 43.8217C25.7384 37.1096 25.726 30.3973 25.7294 23.685C25.7728 23.3868 25.5315 23.0679 25.1811 23.0751C24.3416 23.0628 23.5011 23.0679 22.6616 23.073C22.3444 23.0453 22.0348 23.2899 22.0588 23.586C22.0476 30.2549 22.0611 36.9259 22.052 43.5958C22.0703 44.5184 21.399 45.4051 20.4415 45.7167C18.2299 46.4365 11.9175 42.6307 11.9175 42.6307C11.6858 42.5311 11.5387 42.2977 11.5615 42.066C11.5615 35.3559 11.5626 28.6457 11.5615 21.9366C11.5296 21.6661 11.7091 21.4225 11.9767 21.3121C18.5237 17.9658 25.0673 14.6112 31.6144 11.2629C31.8418 11.122 32.1588 11.1224 32.3857 11.2639C38.9327 14.6112 45.4775 17.9628 52.0256 21.3092C52.2941 21.4194 52.4659 21.6672 52.4386 21.9366C52.4375 28.6457 52.4408 35.3559 52.4364 42.0651C52.4558 42.3025 52.3236 42.5326 52.0849 42.6368C45.599 45.9649 39.0392 49.1857 32.612 52.6105C32.3316 52.7599 32.0139 52.9291 31.6996 52.7645C30.0095 51.8964 28.3398 50.9945 26.6552 50.118C26.4721 50.0119 26.2389 49.9663 26.0478 50.0851C25.2926 50.4547 24.5822 50.754 23.7148 51.0728C22.4967 51.5206 22.6913 51.7037 23.79 52.298C25.76 53.3333 27.7334 54.3644 29.7034 55.4007C31.0003 56.1523 32.7429 56.2057 34.0816 55.5113C40.6513 52.1494 47.219 48.7836 53.79 45.4217C55.0978 44.8023 56.0091 43.5204 55.9999 42.1704V21.8322C56.0126 20.536 55.1833 19.2839 53.9434 18.6502C47.3519 15.2677 40.7573 11.8925 34.1646 8.51209Z" fill="#8CC84B"/>
<path d="M44.0771 23.7822C41.4986 22.5013 38.431 22.4331 35.5656 22.6005C33.4955 22.7905 31.3183 23.3209 29.8102 24.6988C28.2633 26.084 27.9265 28.3208 28.6613 30.129C29.1878 31.4068 30.5132 32.2377 31.8838 32.6773C33.6493 33.256 35.5035 33.435 37.3584 33.614C39.0502 33.7772 40.7426 33.9405 42.3686 34.4073C43.0329 34.6117 43.8064 34.9244 44.0099 35.5955C44.1978 36.3903 43.9918 37.3141 43.2969 37.8663C41.0896 39.4885 34.9497 39.2399 32.7688 37.9631C31.8871 37.4192 31.5072 36.4563 31.3526 35.5386C31.3355 35.2527 31.0875 34.9904 30.7532 35.0121C29.916 35.0029 29.0787 35.0049 28.2415 35.0111C27.9494 34.9883 27.6457 35.1813 27.6297 35.4582C27.4576 39.6611 31.6146 41.4934 35.5146 41.8967C37.7427 42.0939 40.0198 42.0826 42.2139 41.6386C43.8633 41.2899 45.5171 40.6477 46.6525 39.4681C48.0526 38.0344 48.3278 35.9 47.7 34.1142C47.22 32.7817 45.8481 31.9269 44.4458 31.4872C42.5387 30.88 40.2786 30.5536 38.5513 30.4009C36.0408 30.1789 33.0574 30.2696 32.3468 28.7377C32.0634 27.9356 32.3045 26.9396 33.0984 26.4462C35.1987 25.1233 39.4735 25.299 41.6486 26.2873C42.6474 26.7517 43.2262 27.7055 43.4651 28.6684C43.5094 28.9513 43.7143 29.2465 44.0669 29.2341C44.8984 29.2496 45.7299 29.2383 46.5613 29.2393C46.8469 29.2578 47.1596 29.1081 47.2154 28.8366C47.1801 26.824 46.0733 24.7638 44.0771 23.7822Z" fill="#8CC84B"/>
</svg>
