<svg width="48" height="48" viewBox="0 0 48 48" fill="none" xmlns="http://www.w3.org/2000/svg">
<rect x="0.5" y="0.5" width="47" height="47" rx="23.5" stroke="#F8333C"/>
<path d="M19.0324 24.0552L18.6217 23.979C18.8761 22.6086 18.6578 21.6989 18.1541 21.0949L19.0324 24.0552ZM19.0324 24.0552L18.6217 23.979C18.52 24.5267 18.3501 25.0171 18.1165 25.4554M19.0324 24.0552L18.1165 25.4554M18.1165 25.4554C17.8822 25.8942 17.5747 26.2994 17.188 26.6716L17.1879 26.6716L17.183 26.6764C16.7313 27.1192 16.2429 27.4224 15.7164 27.6016L15.7158 27.6018C15.1793 27.7848 14.4513 27.8897 13.5049 27.8897H11.2529H10.6293L10.5155 28.5028L10.0055 31.25H8.902L10.9694 20.1103H15.4018C16.7929 20.1103 17.6492 20.4898 18.154 21.0948L18.1165 25.4554ZM19.8463 27.8897H20.9293L22.1593 21.2615L22.273 20.6483H22.8967H24.9813C25.3522 20.6483 25.6985 20.6799 26.0015 20.7603C26.3002 20.8396 26.6158 20.9821 26.8516 21.2485M19.8463 27.8897L26.2901 21.7457M19.8463 27.8897L21.9138 16.75M19.8463 27.8897L21.9138 16.75M26.8516 21.2485L26.2901 21.7457M26.8516 21.2485C26.8515 21.2483 26.8513 21.2481 26.8511 21.2479L26.2901 21.7457M26.8516 21.2485C27.0938 21.5217 27.1917 21.8587 27.2228 22.1698C27.2541 22.4826 27.2243 22.8264 27.158 23.1839L27.158 23.184L26.2848 27.8897M26.2901 21.7457C26.4953 21.9769 26.5386 22.411 26.4206 23.0472L25.522 27.8897H26.2848M26.2848 27.8897H27.4092M26.2848 27.8897L26.1456 28.6397H28.0328M27.4092 27.8897L21.2902 16H23.1359L22.9967 16.75M27.4092 27.8897L28.3868 22.6211M27.4092 27.8897H28.0328V28.6397M27.4092 27.8897L27.2954 28.5028L28.0328 28.6397M27.4092 27.8897L21.9138 16.75M28.0328 28.6397L29.1243 22.7579M29.1243 22.7579C29.3461 21.5613 29.18 20.6958 28.6248 20.1616M29.1243 22.7579L28.3868 22.6211M29.1243 22.7579L28.3869 22.621L28.3868 22.6211M28.6248 20.1616C28.0696 19.6277 27.0611 19.3603 25.5991 19.3603H24.0379L24.0125 19.4972L23.2751 19.3603V18.6103H23.4143L23.7596 16.75H22.9967M28.6248 20.1616L28.1048 20.702M28.6248 20.1616L28.1049 20.7022C28.1049 20.7021 28.1048 20.7021 28.1048 20.702M22.9967 16.75H21.9138M22.9967 16.75L22.5377 19.2235L22.3731 20.1103H23.2751H25.5991C27.0209 20.1103 27.7706 20.3808 28.1048 20.702M28.1048 20.702C28.3908 20.9772 28.5905 21.5229 28.3868 22.6211M17.3788 24.0598L17.3789 24.0596C17.561 23.0774 17.5414 22.1064 16.9721 21.4449L16.9718 21.4446C16.408 20.7902 15.4357 20.6049 14.4063 20.6049H12.6047H11.9811L11.8673 21.2181L10.8855 26.5081L10.721 27.395H11.623H13.2225C14.3589 27.395 15.3507 27.1745 16.0617 26.6014L16.0617 26.6013C16.7744 26.0266 17.18 25.1299 17.3788 24.0598ZM38.676 21.0949L38.6761 21.0949C39.1799 21.6988 39.3981 22.6084 39.1436 23.979C39.0419 24.5268 38.872 25.0173 38.6384 25.4555C38.4044 25.894 38.0968 26.2992 37.7099 26.6716L37.7099 26.6716L37.705 26.6764C37.2533 27.1192 36.7649 27.4224 36.2384 27.6016L36.2378 27.6017C35.7012 27.7848 34.9735 27.8897 34.0272 27.8897H31.7751H31.1515L31.0377 28.5028L30.5278 31.25H29.4242L31.4917 20.1103H35.9241C37.3149 20.1103 38.1713 20.4898 38.676 21.0949ZM37.901 24.0598L37.9011 24.0594C38.0829 23.0776 38.0637 22.1065 37.4944 21.4449L37.4939 21.4443C36.9299 20.7903 35.9579 20.6049 34.9283 20.6049H33.127H32.5034L32.3896 21.2181L31.4078 26.5081L31.2432 27.395H32.1452H33.7444C34.8806 27.395 35.8726 27.1746 36.5835 26.6014C37.2966 26.0267 37.7022 25.1299 37.901 24.0598Z" fill="#1F2224" stroke="#F8333C" stroke-width="1.5"/>
</svg>
