<svg width="48" height="48" viewBox="0 0 48 48" fill="none" xmlns="http://www.w3.org/2000/svg">
<rect x="0.5" y="0.5" width="47" height="47" rx="23.5" stroke="#F8333C"/>
<path d="M24.0007 27.2878C25.6495 27.2878 26.9861 25.785 26.9861 23.9311C26.9861 22.0772 25.6495 20.5743 24.0007 20.5743C22.352 20.5743 21.0154 22.0772 21.0154 23.9311C21.0154 25.785 22.352 27.2878 24.0007 27.2878Z" fill="#00D8FF"/>
<path fill-rule="evenodd" clip-rule="evenodd" d="M24.22 16.8556C29.3101 16.8945 34.8634 17.3121 38.6754 21.1343C38.7874 21.2467 38.8954 21.3637 39.0008 21.4844C39.9001 22.5151 40.3701 24.1792 39.6441 25.5487C38.1548 28.3605 34.8241 29.5869 31.5994 30.3417C26.7767 31.4706 21.734 31.4796 16.9133 30.4856C14.1393 29.9129 11.3026 28.9092 9.3313 26.8096C8.56397 25.9925 7.90796 24.9176 8.01063 23.7212C8.1773 21.7857 9.82864 20.5436 11.2186 19.7026C15.0793 17.3668 19.7834 16.8443 24.22 16.8556ZM23.8507 17.7348C19.0347 17.7716 13.822 18.1171 10.1033 21.5796C9.97331 21.7003 9.84797 21.8269 9.7273 21.9596C9.6493 22.0451 9.57397 22.1343 9.5013 22.2257C8.84863 23.0503 8.62397 24.3749 9.23997 25.3651C9.85997 26.3613 10.8013 27.0802 11.7706 27.6664C15.396 29.8582 19.68 30.2473 23.8567 30.2638C28.0854 30.281 32.4461 29.8477 36.1814 27.6761C37.6694 26.8103 39.3441 25.539 39.2848 23.9019C39.2301 22.3996 37.9274 21.4716 36.9521 20.809C36.6881 20.6298 36.4168 20.4642 36.1414 20.3082C32.4334 18.2191 28.0881 17.7243 23.8507 17.7348Z" fill="#00D8FF"/>
<path fill-rule="evenodd" clip-rule="evenodd" d="M30.7432 8.00045C32.6053 8.05367 33.5699 10.5709 33.6973 12.4299C33.7226 12.7994 33.7319 13.1705 33.7279 13.5415C33.7239 13.9433 33.7046 14.3451 33.6733 14.7454C33.2806 19.7018 31.2679 24.4221 28.8979 28.781C26.5799 33.0448 23.7532 37.2966 19.9079 39.2725C18.6365 39.9262 17.1245 40.3295 15.9992 39.6001C14.4565 38.6009 14.2878 36.2636 14.3165 34.4908C14.3238 34.0553 14.3492 33.6197 14.3892 33.1857C14.9818 26.7691 17.8745 20.6905 21.4945 15.4538C23.6065 12.3984 26.1192 9.36773 29.2492 8.27031C29.7419 8.09715 30.1332 7.99221 30.7432 8.00045ZM30.6539 8.87899C28.4679 8.91797 26.5052 10.7395 24.7672 12.6323C20.1979 17.6074 16.8305 24.2242 15.4758 31.1633C15.3712 31.7008 15.2832 32.242 15.2185 32.7869C15.1685 33.209 15.1318 33.6332 15.1125 34.059C15.0972 34.3978 15.0918 34.7374 15.1012 35.077C15.1078 35.3423 15.1232 35.6077 15.1492 35.8716C15.1685 36.0732 15.1945 36.2741 15.2272 36.4735C15.2518 36.6212 15.2805 36.7681 15.3138 36.9143C15.3412 37.0327 15.3718 37.1504 15.4065 37.2673C15.6792 38.1916 16.3818 39.0746 17.3252 39.1039C19.5259 39.1713 21.5979 37.367 23.3892 35.4061C26.5339 31.9646 28.8772 27.6401 30.7079 23.0945C32.1852 19.4245 33.5366 15.435 32.7819 11.3954C32.7533 11.2425 32.7199 11.0911 32.6819 10.9412C32.6506 10.819 32.6153 10.6983 32.5766 10.5791C32.2833 9.68032 31.5932 8.87674 30.6539 8.87899Z" fill="#00D8FF"/>
<path fill-rule="evenodd" clip-rule="evenodd" d="M17.4059 8.03342C19.7819 8.08515 21.9159 9.89844 23.8106 11.9291C27.268 15.6344 29.818 20.348 31.7526 25.3089C33.2513 29.1521 34.63 33.4661 33.4047 37.5214C33.0187 38.7995 32.042 39.9689 30.74 39.9989C28.3526 40.0529 26.14 38.1009 24.2199 35.9997C19.4033 30.727 15.8272 23.7662 14.6019 16.384C14.5139 15.8563 14.4439 15.3241 14.3959 14.7896C14.3566 14.3534 14.3319 13.9148 14.3252 13.4763C14.3199 13.1225 14.3266 12.7687 14.3486 12.4164C14.3632 12.181 14.3846 11.9471 14.4132 11.714C14.4406 11.4951 14.4752 11.277 14.5186 11.0611C14.5472 10.9179 14.5792 10.7762 14.6159 10.6353C14.9752 9.25378 15.9099 8.02293 17.4059 8.03342ZM17.3159 8.91271C15.9246 8.94719 15.2879 10.792 15.1599 12.0865C15.1339 12.3519 15.1179 12.6195 15.1106 12.8871C15.1012 13.2289 15.1052 13.5715 15.1206 13.9133C15.3392 18.86 17.3059 23.6425 19.6793 28.0217C21.9139 32.1445 24.6126 36.2509 28.3246 38.3618C29.3966 38.9712 30.6993 39.4502 31.6253 38.8745C32.7867 38.1519 32.9293 36.43 32.9913 35.1467C33.008 34.7974 33.01 34.4466 33 34.0965C32.988 33.6572 32.9573 33.2187 32.9113 32.7824C32.4833 28.7068 30.878 24.8501 29.034 21.2055C26.7393 16.6719 23.9279 12.1533 19.9493 9.79275C19.1253 9.30401 18.2332 8.90447 17.3159 8.91271Z" fill="#00D8FF"/>
</svg>
