<svg width="48" height="48" viewBox="0 0 48 48" fill="none" xmlns="http://www.w3.org/2000/svg">
<rect x="0.5" y="0.5" width="47" height="47" rx="23.5" stroke="#F8333C"/>
<path d="M33.1925 9.41959H10.7365C10.0114 9.4214 9.31651 9.67975 8.80375 10.1382C8.29099 10.5966 8.00202 11.2179 8 11.8662V34.0085C8.00202 34.6568 8.29099 35.2781 8.80375 35.7365C9.31651 36.195 10.0114 36.4533 10.7365 36.4551H25.5274C25.3587 29.8751 27.8728 17.1058 33.1925 9.41959Z" fill="#0F80CC"/>
<path d="M32.3771 10.1338H10.7365C10.2228 10.1344 9.73035 10.3171 9.36711 10.6419C9.00387 10.9666 8.7995 11.4069 8.79883 11.8662V32.3926C14.3507 30.5205 20.2112 29.484 26.1422 29.3254C27.7109 22.8046 29.7944 16.3913 32.3771 10.1338Z" fill="url(#paint0_linear_11_547)"/>
<path d="M38.4304 8.69506C36.8966 7.46887 35.0305 7.9614 33.1899 9.41957C32.9177 9.6367 32.6454 9.87668 32.3745 10.1338C28.9121 13.795 26.5179 18.1659 25.4059 22.8562C25.7492 23.5258 26.0205 24.2229 26.2163 24.9383C26.2623 25.0983 26.3045 25.2492 26.3441 25.3772C26.4233 25.68 26.4719 25.8766 26.4719 25.8766C26.4719 25.8766 26.4438 25.7817 26.3275 25.4812L26.2521 25.2869C26.2393 25.256 26.2227 25.2195 26.2035 25.1795C25.999 24.7532 25.4366 23.8539 25.181 23.4653C24.9675 24.0287 24.7784 24.5555 24.6211 25.032C25.1518 26.0526 25.5416 27.127 25.7817 28.2318C25.7817 28.2318 25.7434 28.1004 25.5631 27.6433C25.2169 26.9757 24.8329 26.3242 24.4128 25.6914C24.1411 26.3183 24.0259 26.9907 24.0754 27.6616C24.3569 28.1634 24.5685 28.6941 24.7055 29.242C25.1324 30.7082 25.4289 32.4943 25.4289 32.4943C25.4289 32.4943 25.4392 32.6086 25.4545 32.7949C25.3984 34.0161 25.4261 35.2392 25.5376 36.4574C25.6009 37.6636 25.8522 38.8559 26.284 40L26.5141 39.8857C25.9786 38.1662 25.772 36.3781 25.9031 34.597C26.1437 30.821 26.9776 27.0941 28.3802 23.5259C30.9493 17.4601 34.5154 12.5919 37.7747 10.2698C34.8017 12.6696 30.778 20.4404 29.5727 23.3179C28.3035 26.2806 27.3392 29.3407 26.6918 32.46C27.4623 30.7192 28.971 29.321 30.8892 28.5701C30.8892 28.5701 32.4652 26.8319 34.307 24.3498C33.1171 24.5717 31.9416 24.8513 30.7857 25.1875C29.891 25.5234 29.6494 25.6377 29.6494 25.6377C31.3574 24.7181 33.1618 23.9499 35.0369 23.3442C38.4572 18.5274 42.1843 11.688 38.4317 8.68935" fill="#003B57"/>
<defs>
<linearGradient id="paint0_linear_11_547" x1="20.5605" y1="10.636" x2="20.5605" y2="31.2041" gradientUnits="userSpaceOnUse">
<stop stop-color="#97D9F6"/>
<stop offset="0.92" stop-color="#0F80CC"/>
<stop offset="1" stop-color="#0F80CC"/>
</linearGradient>
</defs>
</svg>
