<svg width="48" height="48" viewBox="0 0 48 48" fill="none" xmlns="http://www.w3.org/2000/svg">
<rect x="0.5" y="0.5" width="47" height="47" rx="23.5" stroke="#F8333C"/>
<path d="M32.155 34.3407C28.3829 36.1632 23.1962 36.3505 17.978 34.4799C13.753 32.9765 10.2473 30.3447 8 27.3376C9.07871 28.0894 10.3372 28.6911 11.6855 29.217C17.0744 31.3296 22.4622 31.1849 26.2537 29.2224C20.8601 25.7639 16.27 21.2473 12.8543 17.5637C12.1348 16.9621 11.5955 16.2102 11.0561 15.5336C15.1911 18.6913 21.7535 22.6759 24.0902 23.8042C19.1469 19.4431 14.7418 14.0301 14.9213 14.1802C22.7421 20.7965 30.0237 24.5558 30.0237 24.5558C30.2646 24.6695 30.4505 24.7641 30.6 24.8486C30.7576 24.5133 30.8958 24.1651 31.0122 23.8042C32.2706 19.9697 30.8328 15.6086 27.6862 12C34.9671 15.684 39.2824 22.6008 37.484 28.3903C37.4372 28.5465 37.3862 28.7007 37.3312 28.852C40.9264 32.6115 40.0009 36.6609 39.5516 35.9091C37.6012 32.7169 33.9906 33.693 32.155 34.3407Z" fill="url(#paint0_linear_8_411)"/>
<defs>
<linearGradient id="paint0_linear_8_411" x1="24.0118" y1="12" x2="24.0118" y2="36.0013" gradientUnits="userSpaceOnUse">
<stop stop-color="#F88A36"/>
<stop offset="1" stop-color="#FD2020"/>
</linearGradient>
</defs>
</svg>
