<svg width="48" height="48" viewBox="0 0 48 48" fill="none" xmlns="http://www.w3.org/2000/svg">
<rect x="0.5" y="0.5" width="47" height="47" rx="23.5" stroke="#F8333C"/>
<path d="M34.8754 12H13.1246C12.5035 12 12 12.5035 12 13.1246V34.8754C12 35.4965 12.5035 36 13.1246 36H34.8754C35.4965 36 36 35.4965 36 34.8754V13.1246C36 12.5035 35.4965 12 34.8754 12Z" fill="#3178C6"/>
<path fill-rule="evenodd" clip-rule="evenodd" d="M25.9243 30.6506V33.2803C26.4022 33.5161 26.9113 33.6821 27.4363 33.7731C28.043 33.8852 28.6588 33.9402 29.2758 33.9377C29.877 33.9406 30.4769 33.88 31.0655 33.7569C31.5939 33.6501 32.0981 33.4467 32.5526 33.1569C32.9746 32.8845 33.3224 32.5116 33.5649 32.0717C33.9992 31.1609 34.0565 30.1154 33.7243 29.1626C33.5842 28.8063 33.3754 28.4809 33.1098 28.2051C32.8247 27.9119 32.5008 27.659 32.1472 27.4534C31.7401 27.215 31.3171 27.0048 30.8812 26.8243C30.5383 26.682 30.2298 26.5437 29.9555 26.4094C29.7119 26.2928 29.4787 26.1554 29.2586 25.9989C29.0862 25.878 28.9365 25.7277 28.8163 25.5549C28.7125 25.3979 28.6584 25.2133 28.6612 25.0251C28.6589 24.852 28.7072 24.6819 28.8001 24.5357C28.9009 24.3827 29.0355 24.2549 29.1935 24.162C29.3866 24.0483 29.5967 23.9664 29.8158 23.9194C30.0848 23.8597 30.3597 23.8309 30.6352 23.8337C30.8669 23.8345 31.0983 23.8511 31.3278 23.8834C31.5756 23.9169 31.8207 23.9676 32.0615 24.0351C32.3064 24.103 32.5459 24.189 32.7781 24.2923C33.0033 24.3927 33.2188 24.5138 33.4218 24.654V22.2C32.9993 22.0402 32.5612 21.9253 32.1146 21.8571C31.5754 21.7787 31.0309 21.7417 30.4861 21.7466C29.8904 21.7434 29.2966 21.811 28.7169 21.948C28.193 22.0677 27.6948 22.2805 27.2461 22.5763C26.8292 22.854 26.485 23.2276 26.2423 23.6657C25.9852 24.1523 25.8579 24.697 25.8729 25.2471C25.8539 25.9747 26.0936 26.6854 26.5492 27.2529C27.1082 27.8821 27.8131 28.3645 28.6021 28.6577C28.9621 28.8063 29.2978 28.9517 29.6092 29.094C29.8902 29.219 30.1603 29.3673 30.4166 29.5371C30.6234 29.6717 30.805 29.8414 30.9532 30.0386C31.0835 30.2175 31.1526 30.4336 31.1503 30.6549C31.1515 30.8207 31.109 30.9839 31.0269 31.128C30.9358 31.2829 30.8077 31.4127 30.6541 31.506C30.4619 31.6232 30.2516 31.7078 30.0318 31.7563C29.7454 31.8203 29.4526 31.8505 29.1592 31.8463C28.5835 31.8452 28.0123 31.7437 27.4715 31.5463C26.9065 31.3424 26.3825 31.0391 25.9243 30.6506ZM21.5066 24.1037H24.9352V21.9377H15.3755V24.1037H18.7886V33.75H21.5066V24.1037Z" fill="#E7E5DF"/>
</svg>
