<svg width="64" height="64" viewBox="0 0 64 64" fill="none" xmlns="http://www.w3.org/2000/svg">
<rect x="0.5" y="0.5" width="63" height="63" rx="31.5" stroke="#F8333C"/>
<path d="M32 12H24C19.5817 12 16 14.9848 16 18.6667C16 22.3486 19.5817 25.3333 24 25.3333M32 12V25.3333M32 12H40C44.4184 12 48 14.9848 48 18.6667C48 22.3486 44.4184 25.3333 40 25.3333M24 25.3333H32M24 25.3333C19.5817 25.3333 16 28.318 16 32C16 35.682 19.5817 38.6667 24 38.6667M32 25.3333H40M32 25.3333V38.6667M40 25.3333C44.4184 25.3333 48 28.318 48 32C48 35.682 44.4184 38.6667 40 38.6667C35.5816 38.6667 32 35.682 32 32C32 28.318 35.5816 25.3333 40 25.3333ZM32 38.6667H24M32 38.6667V45.3333C32 49.0153 28.4184 52 24 52C19.5817 52 16 49.0153 16 45.3333C16 41.6513 19.5817 38.6667 24 38.6667" stroke="#E7E5DF" stroke-width="2" stroke-linecap="round" stroke-linejoin="round"/>
</svg>
