<svg width="32" height="32" viewBox="0 0 32 32" fill="none" xmlns="http://www.w3.org/2000/svg">
<g filter="url(#filter0_i_2_765)">
<path d="M25.8125 0H6.1875C2.775 0 0 2.77392 0 6.18508V12.72V25.8149C0 29.2261 2.775 32 6.1875 32H25.8125C29.225 32 32 29.2261 32 25.8149V12.7075V6.17259C31.9875 2.77392 29.2125 0 25.8125 0ZM27.5875 3.68606H28.3V4.38579V9.10894L22.8875 9.12144L22.875 3.69856L27.5875 3.68606ZM11.425 12.7075C12.45 11.2956 14.1125 10.3585 15.9875 10.3585C17.8625 10.3585 19.525 11.2831 20.55 12.7075C21.225 13.6322 21.6125 14.7692 21.6125 15.9938C21.6125 19.0925 19.0875 21.6291 15.975 21.6291C12.8625 21.6291 10.3625 19.0925 10.3625 15.9938C10.3625 14.7692 10.7625 13.6322 11.425 12.7075ZM28.875 25.8024C28.875 27.4893 27.5 28.8637 25.8125 28.8637H6.1875C4.5 28.8637 3.125 27.4893 3.125 25.8024V12.7075H7.9C7.4875 13.7196 7.25 14.8317 7.25 15.9938C7.25 20.8169 11.175 24.7403 16 24.7403C20.825 24.7403 24.75 20.8169 24.75 15.9938C24.75 14.8317 24.5125 13.7196 24.1 12.7075H28.875V25.8024Z" fill="#F8333C"/>
</g>
<defs>
<filter id="filter0_i_2_765" x="0" y="0" width="32" height="36" filterUnits="userSpaceOnUse" color-interpolation-filters="sRGB">
<feFlood flood-opacity="0" result="BackgroundImageFix"/>
<feBlend mode="normal" in="SourceGraphic" in2="BackgroundImageFix" result="shape"/>
<feColorMatrix in="SourceAlpha" type="matrix" values="0 0 0 0 0 0 0 0 0 0 0 0 0 0 0 0 0 0 127 0" result="hardAlpha"/>
<feOffset dy="4"/>
<feGaussianBlur stdDeviation="2"/>
<feComposite in2="hardAlpha" operator="arithmetic" k2="-1" k3="1"/>
<feColorMatrix type="matrix" values="0 0 0 0 0 0 0 0 0 0 0 0 0 0 0 0 0 0 0.25 0"/>
<feBlend mode="normal" in2="shape" result="effect1_innerShadow_2_765"/>
</filter>
</defs>
</svg>
