<svg width="80" height="72" viewBox="0 0 80 72" fill="none" xmlns="http://www.w3.org/2000/svg">
<g clip-path="url(#clip0_13_108)">
<g filter="url(#filter0_i_13_108)">
<path fill-rule="evenodd" clip-rule="evenodd" d="M20 8.15385C20 6.52174 20.6484 4.95649 21.8024 3.80242C22.9565 2.64835 24.5217 2 26.1538 2H53.8462C55.4783 2 57.0435 2.64835 58.1976 3.80242C59.3517 4.95649 60 6.52174 60 8.15385V28.1538C60 29.7859 59.3517 31.3512 58.1976 32.5053C57.0435 33.6593 55.4783 34.3077 53.8462 34.3077H47.6923V34.8349C47.6923 36.0595 48.1785 37.2349 49.0441 38.0985L50.318 39.3744C50.5328 39.5895 50.6791 39.8635 50.7384 40.1618C50.7976 40.46 50.7672 40.7692 50.6508 41.0501C50.5345 41.3311 50.3375 41.5712 50.0848 41.7403C49.832 41.9094 49.5349 41.9997 49.2308 42H30.7692C30.4651 41.9997 30.168 41.9094 29.9152 41.7403C29.6625 41.5712 29.4655 41.3311 29.3492 41.0501C29.2328 40.7692 29.2024 40.46 29.2616 40.1618C29.3209 39.8635 29.4672 39.5895 29.6821 39.3744L30.9559 38.0985C31.8209 37.2334 32.3072 36.0603 32.3077 34.8369V34.3077H26.1538C24.5217 34.3077 22.9565 33.6593 21.8024 32.5053C20.6484 31.3512 20 29.7859 20 28.1538V8.15385ZM23.0769 8.15385V23.5385C23.0769 24.3545 23.4011 25.1371 23.9781 25.7142C24.5552 26.2912 25.3378 26.6154 26.1538 26.6154H53.8462C54.6622 26.6154 55.4448 26.2912 56.0219 25.7142C56.5989 25.1371 56.9231 24.3545 56.9231 23.5385V8.15385C56.9231 7.3378 56.5989 6.55517 56.0219 5.97813C55.4448 5.4011 54.6622 5.07692 53.8462 5.07692H26.1538C25.3378 5.07692 24.5552 5.4011 23.9781 5.97813C23.4011 6.55517 23.0769 7.3378 23.0769 8.15385Z" fill="#1F2224"/>
</g>
<path d="M47.9423 34.5577H53.8462C55.5446 34.5577 57.1734 33.883 58.3744 32.6821C59.5753 31.4811 60.25 29.8523 60.25 28.1538V8.15385C60.25 6.45544 59.5753 4.8266 58.3744 3.62564C57.1734 2.42469 55.5446 1.75 53.8462 1.75H26.1538C24.4554 1.75 22.8266 2.42469 21.6256 3.62564C20.4247 4.8266 19.75 6.45544 19.75 8.15385V28.1538C19.75 29.8523 20.4247 31.4811 21.6256 32.6821C22.8266 33.883 24.4554 34.5577 26.1538 34.5577H32.0577V34.8368C32.0577 34.8369 32.0577 34.8369 32.0577 34.8369C32.0572 35.994 31.5973 37.1035 30.7791 37.9217L30.779 37.9218L29.5052 39.1977C29.5052 39.1977 29.5051 39.1977 29.5051 39.1977C29.2553 39.4478 29.0853 39.7664 29.0164 40.1131C28.9475 40.4598 28.9829 40.8191 29.1182 41.1457C29.2534 41.4724 29.4824 41.7516 29.7762 41.9481C30.07 42.1446 30.4155 42.2497 30.769 42.25H30.7692H49.2308H49.231C49.5845 42.2497 49.93 42.1446 50.2238 41.9481C50.5176 41.7516 50.7466 41.4724 50.8818 41.1457C51.0171 40.8191 51.0525 40.4598 50.9836 40.1131C50.9147 39.7664 50.7447 39.4478 50.4949 39.1977C50.4949 39.1977 50.4948 39.1977 50.4948 39.1977L49.221 37.9218L49.2207 37.9215C48.4022 37.105 47.9423 35.9933 47.9423 34.8349V34.5577ZM23.3269 23.5385V8.15385C23.3269 7.4041 23.6248 6.68506 24.1549 6.15491C24.6851 5.62476 25.4041 5.32692 26.1538 5.32692H53.8462C54.5959 5.32692 55.3149 5.62476 55.8451 6.15491C56.3752 6.68506 56.6731 7.4041 56.6731 8.15385V23.5385C56.6731 24.2882 56.3752 25.0072 55.8451 25.5374C55.3149 26.0676 54.5959 26.3654 53.8462 26.3654H26.1538C25.4041 26.3654 24.6851 26.0676 24.1549 25.5374C23.6248 25.0072 23.3269 24.2882 23.3269 23.5385Z" stroke="#F8333C" stroke-width="0.5"/>
<g filter="url(#filter1_i_13_108)">
<path fill-rule="evenodd" clip-rule="evenodd" d="M44.9585 10C44.7525 10 44.5514 10.0634 44.3805 10.1828L41.5971 12.1171C40.8986 12.6028 40.2599 13.176 39.6952 13.8238C40.8551 14.3925 41.7882 15.3656 42.3335 16.5752C42.9547 15.9861 43.5044 15.3198 43.9701 14.5912L45.8254 11.6891C45.9298 11.5254 45.9898 11.3353 45.9988 11.1389C46.0078 10.9426 45.9656 10.7473 45.8767 10.574C45.7877 10.4007 45.6554 10.2557 45.4937 10.1547C45.332 10.0536 45.1471 10.0001 44.9585 10ZM40.4108 18.014C40.77 17.8059 41.1169 17.5756 41.4497 17.3243C41.2285 16.7409 40.895 16.2111 40.4697 15.7675C40.0443 15.324 39.5363 14.9762 38.9769 14.7455C38.7359 15.0924 38.5151 15.4539 38.3156 15.8283L38.1633 16.114C38.6323 16.2548 39.0595 16.5175 39.4046 16.8775C39.7497 17.2375 40.0015 17.683 40.1363 18.1722L40.4114 18.0134L40.4108 18.014ZM37.3704 16.8569C36.8255 16.8569 36.3029 17.0826 35.9175 17.4845C35.5322 17.8863 35.3157 18.4313 35.3157 18.9996C35.3157 19.1171 35.2926 19.2333 35.2478 19.341C35.203 19.4487 35.1374 19.5457 35.0552 19.6259C34.9729 19.7061 34.8757 19.7679 34.7697 19.8073C34.6636 19.8467 34.5509 19.8629 34.4385 19.855C34.3642 19.8498 34.29 19.8658 34.2237 19.9011C34.1574 19.9365 34.1016 19.99 34.0622 20.0559C34.0228 20.1218 34.0013 20.1976 34.0001 20.2753C33.9988 20.3529 34.0178 20.4295 34.055 20.4967C34.371 21.0694 34.8596 21.5172 35.4447 21.7706C36.0299 22.024 36.6788 22.0689 37.2909 21.8982C37.903 21.7276 38.444 21.3509 38.8298 20.8268C39.2156 20.3027 39.4247 19.6604 39.4246 18.9996C39.4246 18.7182 39.3714 18.4396 39.2682 18.1796C39.1649 17.9197 39.0136 17.6834 38.8228 17.4845C38.632 17.2855 38.4055 17.1277 38.1562 17.02C37.9069 16.9123 37.6402 16.8569 37.3704 16.8569Z" fill="#1F2224"/>
</g>
<path d="M3.49713 68C3.03846 68 2.66513 67.8613 2.37713 67.584C2.08913 67.3067 1.94513 66.944 1.94513 66.496V56.8H7.28913C8.14246 56.8 8.88913 56.96 9.52913 57.28C10.1798 57.6 10.6811 58.0533 11.0331 58.64C11.3958 59.2267 11.5771 59.904 11.5771 60.672V63.808C11.5771 65.184 11.2198 66.2293 10.5051 66.944C9.79046 67.648 8.73979 68 7.35313 68H3.49713ZM7.28913 66.048C7.97179 66.048 8.48913 65.8507 8.84113 65.456C9.19313 65.0613 9.36913 64.48 9.36913 63.712V60.768C9.36913 60.16 9.17179 59.6747 8.77713 59.312C8.38246 58.9387 7.86513 58.752 7.22513 58.752H4.15313V66.048H7.28913ZM16.2195 68.128C15.5475 68.128 14.9502 68.0053 14.4275 67.76C13.9155 67.504 13.5155 67.152 13.2275 66.704C12.9395 66.2453 12.7955 65.7227 12.7955 65.136V63.072C12.7955 62.4427 12.9395 61.888 13.2275 61.408C13.5155 60.928 13.9155 60.5547 14.4275 60.288C14.9502 60.0213 15.5475 59.888 16.2195 59.888H17.4995C18.5235 59.888 19.3448 60.176 19.9635 60.752C20.5822 61.328 20.8915 62.096 20.8915 63.056V64.752H14.9715V65.136C14.9715 65.488 15.0835 65.7707 15.3075 65.984C15.5315 66.1973 15.8355 66.304 16.2195 66.304H17.4675C17.8408 66.304 18.1395 66.224 18.3635 66.064C18.5982 65.8933 18.7155 65.6747 18.7155 65.408H20.8595C20.8595 65.9413 20.7155 66.416 20.4275 66.832C20.1395 67.248 19.7342 67.568 19.2115 67.792C18.6995 68.016 18.1075 68.128 17.4355 68.128H16.2195ZM18.7475 63.184V63.056C18.7475 62.64 18.6355 62.3093 18.4115 62.064C18.1875 61.808 17.8888 61.68 17.5155 61.68H16.2195C15.8355 61.68 15.5262 61.8133 15.2915 62.08C15.0568 62.3467 14.9395 62.6987 14.9395 63.136V63.184H18.7475ZM25.4695 68C25.1602 68 24.8988 67.92 24.6855 67.76C24.4828 67.5893 24.3068 67.3227 24.1575 66.96L21.4055 60.016H23.6935L25.5815 65.504H25.6135L27.5175 60.016H29.8055L26.5895 68H25.4695ZM32.3253 68C31.8666 68 31.4933 67.8613 31.2053 67.584C30.9173 67.3067 30.7733 66.944 30.7733 66.496V56.8H36.1173C36.9706 56.8 37.7173 56.96 38.3573 57.28C39.0079 57.6 39.5093 58.0533 39.8613 58.64C40.2239 59.2267 40.4053 59.904 40.4053 60.672V63.808C40.4053 65.184 40.0479 66.2293 39.3333 66.944C38.6186 67.648 37.5679 68 36.1813 68H32.3253ZM36.1173 66.048C36.7999 66.048 37.3173 65.8507 37.6693 65.456C38.0213 65.0613 38.1973 64.48 38.1973 63.712V60.768C38.1973 60.16 37.9999 59.6747 37.6053 59.312C37.2106 58.9387 36.6933 58.752 36.0533 58.752H32.9813V66.048H36.1173ZM44.6476 68.128C43.805 68.128 43.1276 67.8453 42.6156 67.28C42.1036 66.704 41.8476 65.952 41.8476 65.024V60.016H44.0236V65.056C44.0236 65.408 44.109 65.696 44.2796 65.92C44.461 66.1333 44.6956 66.24 44.9836 66.24H45.9116C46.2636 66.24 46.5836 66.096 46.8716 65.808C47.1596 65.5093 47.3623 65.12 47.4796 64.64V60.016H49.6556V68H47.6396V66.976C47.3943 67.3173 47.0903 67.5947 46.7276 67.808C46.3756 68.0213 46.0343 68.128 45.7036 68.128H44.6476ZM57.1381 67.328C56.9355 67.5627 56.6848 67.7547 56.3861 67.904C56.0981 68.0533 55.8155 68.128 55.5381 68.128H54.4021C53.4315 68.128 52.6528 67.84 52.0661 67.264C51.4795 66.6773 51.1861 65.9093 51.1861 64.96V63.168C51.1861 62.5173 51.3195 61.9467 51.5861 61.456C51.8635 60.9547 52.2528 60.5707 52.7541 60.304C53.2555 60.0267 53.8315 59.888 54.4821 59.888H55.5541C55.8741 59.888 56.1888 59.9733 56.4981 60.144C56.8181 60.3147 57.0848 60.5387 57.2981 60.816V60.016H59.3141V71.2H57.1381V67.328ZM55.6341 66.256C56.0395 66.256 56.3808 66.0907 56.6581 65.76C56.9355 65.4187 57.0955 64.976 57.1381 64.432V63.168C57.0955 62.7413 56.9515 62.4 56.7061 62.144C56.4608 61.888 56.1515 61.76 55.7781 61.76H54.6741C54.2795 61.76 53.9595 61.904 53.7141 62.192C53.4795 62.48 53.3621 62.8587 53.3621 63.328V64.8C53.3621 65.2373 53.4688 65.5893 53.6821 65.856C53.9061 66.1227 54.1941 66.256 54.5461 66.256H55.6341ZM63.8664 68.128C63.0237 68.128 62.3464 67.8453 61.8344 67.28C61.3224 66.704 61.0664 65.952 61.0664 65.024V60.016H63.2424V65.056C63.2424 65.408 63.3277 65.696 63.4984 65.92C63.6797 66.1333 63.9144 66.24 64.2024 66.24H65.1304C65.4824 66.24 65.8024 66.096 66.0904 65.808C66.3784 65.5093 66.581 65.12 66.6984 64.64V60.016H68.8744V68H66.8584V66.976C66.613 67.3173 66.309 67.5947 65.9464 67.808C65.5944 68.0213 65.253 68.128 64.9224 68.128H63.8664ZM73.8289 68.128C73.1569 68.128 72.5595 68.0053 72.0369 67.76C71.5249 67.504 71.1249 67.152 70.8369 66.704C70.5489 66.2453 70.4049 65.7227 70.4049 65.136V63.072C70.4049 62.4427 70.5489 61.888 70.8369 61.408C71.1249 60.928 71.5249 60.5547 72.0369 60.288C72.5595 60.0213 73.1569 59.888 73.8289 59.888H75.1089C76.1329 59.888 76.9542 60.176 77.5729 60.752C78.1915 61.328 78.5009 62.096 78.5009 63.056V64.752H72.5809V65.136C72.5809 65.488 72.6929 65.7707 72.9169 65.984C73.1409 66.1973 73.4449 66.304 73.8289 66.304H75.0769C75.4502 66.304 75.7489 66.224 75.9729 66.064C76.2075 65.8933 76.3249 65.6747 76.3249 65.408H78.4689C78.4689 65.9413 78.3249 66.416 78.0369 66.832C77.7489 67.248 77.3435 67.568 76.8209 67.792C76.3089 68.016 75.7169 68.128 75.0449 68.128H73.8289ZM76.3569 63.184V63.056C76.3569 62.64 76.2449 62.3093 76.0209 62.064C75.7969 61.808 75.4982 61.68 75.1249 61.68H73.8289C73.4449 61.68 73.1355 61.8133 72.9009 62.08C72.6662 62.3467 72.5489 62.6987 72.5489 63.136V63.184H76.3569Z" fill="#E7E5DF"/>
</g>
<defs>
<filter id="filter0_i_13_108" x="19.5" y="1.5" width="41" height="45" filterUnits="userSpaceOnUse" color-interpolation-filters="sRGB">
<feFlood flood-opacity="0" result="BackgroundImageFix"/>
<feBlend mode="normal" in="SourceGraphic" in2="BackgroundImageFix" result="shape"/>
<feColorMatrix in="SourceAlpha" type="matrix" values="0 0 0 0 0 0 0 0 0 0 0 0 0 0 0 0 0 0 127 0" result="hardAlpha"/>
<feOffset dy="4"/>
<feGaussianBlur stdDeviation="2"/>
<feComposite in2="hardAlpha" operator="arithmetic" k2="-1" k3="1"/>
<feColorMatrix type="matrix" values="0 0 0 0 0 0 0 0 0 0 0 0 0 0 0 0 0 0 0.25 0"/>
<feBlend mode="normal" in2="shape" result="effect1_innerShadow_13_108"/>
</filter>
<filter id="filter1_i_13_108" x="34" y="10" width="12" height="16" filterUnits="userSpaceOnUse" color-interpolation-filters="sRGB">
<feFlood flood-opacity="0" result="BackgroundImageFix"/>
<feBlend mode="normal" in="SourceGraphic" in2="BackgroundImageFix" result="shape"/>
<feColorMatrix in="SourceAlpha" type="matrix" values="0 0 0 0 0 0 0 0 0 0 0 0 0 0 0 0 0 0 127 0" result="hardAlpha"/>
<feOffset dy="4"/>
<feGaussianBlur stdDeviation="2"/>
<feComposite in2="hardAlpha" operator="arithmetic" k2="-1" k3="1"/>
<feColorMatrix type="matrix" values="0 0 0 0 0 0 0 0 0 0 0 0 0 0 0 0 0 0 0.25 0"/>
<feBlend mode="normal" in2="shape" result="effect1_innerShadow_13_108"/>
</filter>
<clipPath id="clip0_13_108">
<rect width="80" height="72" fill="white"/>
</clipPath>
</defs>
</svg>
