<svg width="80" height="56" viewBox="0 0 80 56" fill="none" xmlns="http://www.w3.org/2000/svg">
<path fill-rule="evenodd" clip-rule="evenodd" d="M53.7153 23.0691C51.8195 23.0691 50.2847 21.5705 50.2847 19.7192C50.2847 17.8679 51.8195 16.376 53.7153 16.376C55.6111 16.376 57.1458 17.8679 57.1458 19.7192C57.1458 21.5705 55.6111 23.0691 53.7153 23.0691ZM26.2847 23.0691C24.3889 23.0691 22.8542 21.5705 22.8542 19.7192C22.8542 17.8679 24.3889 16.376 26.2847 16.376C28.1805 16.376 29.7153 17.8679 29.7153 19.7192C29.7153 21.5705 28.1805 23.0691 26.2847 23.0691ZM55.743 9.65583L57.0208 7.77072L58.2986 5.91259L61.1458 1.73539C61.5 1.22002 61.3541 0.528265 60.8264 0.189202C60.3055 -0.156641 59.5903 -0.014237 59.25 0.501139L54.9028 6.85514L53.5972 8.76753C49.4653 7.20107 44.8611 6.3263 40 6.3263C35.1458 6.3263 30.5347 7.20107 26.4028 8.76753L25.1042 6.85514L23.8195 4.97678L20.7639 0.501139C20.4097 -0.014237 19.7014 -0.149861 19.1736 0.189202C18.6528 0.528265 18.507 1.22002 18.8542 1.73539L21.7014 5.91259L22.9791 7.77072L24.2639 9.65583C14.5625 14.0704 8 22.4317 8 32H72C72 22.4317 65.4375 14.0704 55.743 9.65583Z" fill="#95CF00"/>
<path d="M3.29659 38.2H6.24859L11.7446 48.184L17.1206 38.2H20.0726V55H16.8326V44.368L13.3046 50.752C13.0646 51.184 12.8166 51.496 12.5606 51.688C12.3206 51.864 12.0406 51.952 11.7206 51.952H10.8086L6.53659 44.368V55H3.29659V38.2ZM27.5904 55.192C26.5824 55.192 25.6864 55 24.9024 54.616C24.1344 54.216 23.5344 53.656 23.1024 52.936C22.6864 52.216 22.4784 51.384 22.4784 50.44V47.632C22.4784 46.688 22.6944 45.856 23.1264 45.136C23.5584 44.4 24.1584 43.832 24.9264 43.432C25.7104 43.032 26.6064 42.832 27.6144 42.832H29.7744C30.7824 42.832 31.6704 43.032 32.4384 43.432C33.2224 43.832 33.8304 44.4 34.2624 45.136C34.6944 45.856 34.9104 46.688 34.9104 47.632V50.44C34.9104 51.384 34.6944 52.216 34.2624 52.936C33.8304 53.656 33.2224 54.216 32.4384 54.616C31.6704 55 30.7744 55.192 29.7504 55.192H27.5904ZM29.7024 52.384C30.2944 52.384 30.7664 52.184 31.1184 51.784C31.4704 51.368 31.6464 50.832 31.6464 50.176V47.848C31.6464 47.192 31.4704 46.664 31.1184 46.264C30.7664 45.848 30.3024 45.64 29.7264 45.64H27.6624C27.0864 45.64 26.6224 45.848 26.2704 46.264C25.9184 46.664 25.7424 47.192 25.7424 47.848V50.176C25.7424 50.832 25.9184 51.368 26.2704 51.784C26.6224 52.184 27.0784 52.384 27.6384 52.384H29.7024ZM42.9924 55.192C42.4964 55.192 41.9924 55.032 41.4804 54.712C40.9684 54.392 40.5524 53.976 40.2324 53.464V55H37.2084V38.2H40.4724V43.96C40.7924 43.624 41.1844 43.352 41.6484 43.144C42.1284 42.936 42.5844 42.832 43.0164 42.832H44.6964C45.6244 42.832 46.4404 43.032 47.1444 43.432C47.8644 43.816 48.4164 44.368 48.8004 45.088C49.2004 45.808 49.4004 46.64 49.4004 47.584V50.32C49.4004 51.28 49.2004 52.128 48.8004 52.864C48.4004 53.6 47.8404 54.176 47.1204 54.592C46.4004 54.992 45.5764 55.192 44.6484 55.192H42.9924ZM44.2644 52.336C44.8244 52.336 45.2724 52.128 45.6084 51.712C45.9604 51.296 46.1364 50.752 46.1364 50.08V47.824C46.1364 47.184 45.9684 46.672 45.6324 46.288C45.2964 45.888 44.8564 45.688 44.3124 45.688H42.8244C42.1844 45.688 41.6484 45.912 41.2164 46.36C40.7844 46.808 40.5364 47.4 40.4724 48.136V50.2C40.5844 50.84 40.8404 51.36 41.2404 51.76C41.6564 52.144 42.1444 52.336 42.7044 52.336H44.2644ZM53.7568 41.896C53.1328 41.896 52.6288 41.72 52.2448 41.368C51.8768 41 51.6928 40.52 51.6928 39.928C51.6928 39.336 51.8768 38.864 52.2448 38.512C52.6288 38.144 53.1328 37.96 53.7568 37.96C54.3808 37.96 54.8768 38.144 55.2448 38.512C55.6288 38.864 55.8208 39.336 55.8208 39.928C55.8208 40.52 55.6288 41 55.2448 41.368C54.8768 41.72 54.3808 41.896 53.7568 41.896ZM52.1248 43.024H55.3888V55H52.1248V43.024ZM62.7348 55C61.3108 55 60.2628 54.704 59.5908 54.112C58.9348 53.504 58.6068 52.568 58.6068 51.304V38.2H61.8708V51.112C61.8708 51.496 61.9588 51.776 62.1348 51.952C62.3108 52.128 62.5908 52.216 62.9748 52.216H64.2708V55H62.7348ZM70.3644 55.192C69.3564 55.192 68.4604 55.008 67.6764 54.64C66.9084 54.256 66.3084 53.728 65.8764 53.056C65.4444 52.368 65.2284 51.584 65.2284 50.704V47.608C65.2284 46.664 65.4444 45.832 65.8764 45.112C66.3084 44.392 66.9084 43.832 67.6764 43.432C68.4604 43.032 69.3564 42.832 70.3644 42.832H72.2844C73.8204 42.832 75.0524 43.264 75.9804 44.128C76.9084 44.992 77.3724 46.144 77.3724 47.584V50.128H68.4924V50.704C68.4924 51.232 68.6604 51.656 68.9964 51.976C69.3324 52.296 69.7884 52.456 70.3644 52.456H72.2364C72.7964 52.456 73.2444 52.336 73.5804 52.096C73.9324 51.84 74.1084 51.512 74.1084 51.112H77.3244C77.3244 51.912 77.1084 52.624 76.6764 53.248C76.2444 53.872 75.6364 54.352 74.8524 54.688C74.0844 55.024 73.1964 55.192 72.1884 55.192H70.3644ZM74.1564 47.776V47.584C74.1564 46.96 73.9884 46.464 73.6524 46.096C73.3164 45.712 72.8684 45.52 72.3084 45.52H70.3644C69.7884 45.52 69.3244 45.72 68.9724 46.12C68.6204 46.52 68.4444 47.048 68.4444 47.704V47.776H74.1564Z" fill="#E7E5DF"/>
</svg>
