<svg width="64" height="64" viewBox="0 0 64 64" fill="none" xmlns="http://www.w3.org/2000/svg">
<rect x="0.5" y="0.5" width="63" height="63" rx="31.5" stroke="#F8333C"/>
<path d="M45.7888 10.1293H12.1048C11.0171 10.132 9.97477 10.5196 9.20562 11.2072C8.43648 11.8949 8.00304 12.8268 8 13.7993V47.0127C8.00304 47.9852 8.43648 48.9171 9.20562 49.6048C9.97477 50.2924 11.0171 50.68 12.1048 50.6827H34.2911C34.038 40.8126 37.8093 21.6587 45.7888 10.1293Z" fill="#0F80CC"/>
<path d="M44.5656 11.2007H12.1048C11.3342 11.2016 10.5955 11.4757 10.0507 11.9628C9.50581 12.45 9.19926 13.1104 9.19824 13.7993V44.5889C17.526 41.7807 26.3168 40.226 35.2133 39.9881C37.5663 30.2068 40.6916 20.5869 44.5656 11.2007Z" fill="url(#paint0_linear_33_96)"/>
<path d="M53.646 9.04259C51.3453 7.20331 48.5461 7.94211 45.7853 10.1294C45.3769 10.455 44.9685 10.815 44.5621 11.2007C39.3684 16.6924 35.7772 23.2489 34.1093 30.2843C34.6241 31.2886 35.0311 32.3344 35.3248 33.4075C35.3938 33.6475 35.4571 33.8738 35.5165 34.0657C35.6354 34.52 35.7082 34.8148 35.7082 34.8148C35.7082 34.8148 35.6661 34.6726 35.4916 34.2217L35.3785 33.9303C35.3593 33.884 35.3344 33.8292 35.3056 33.7692C34.9989 33.1298 34.1553 31.7808 33.7718 31.198C33.4517 32.043 33.1679 32.8333 32.9321 33.5481C33.7281 35.0788 34.3127 36.6906 34.6729 38.3477C34.6729 38.3477 34.6154 38.1506 34.3451 37.4649C33.8257 36.4635 33.2498 35.4863 32.6196 34.5371C32.212 35.4775 32.0393 36.4861 32.1134 37.4923C32.5357 38.245 32.8531 39.0412 33.0586 39.863C33.699 42.0622 34.1438 44.7415 34.1438 44.7415C34.1438 44.7415 34.1591 44.9129 34.1821 45.1923C34.0979 47.0241 34.1396 48.8589 34.3067 50.6861C34.4018 52.4954 34.7786 54.2839 35.4264 56L35.7715 55.8286C34.9682 53.2493 34.6584 50.5671 34.8551 47.8955C35.216 42.2315 36.4668 36.6411 38.5707 31.2888C42.4243 22.1901 47.7734 14.8878 52.6624 11.4047C48.2029 15.0044 42.1674 26.6606 40.3595 30.9768C38.4556 35.4209 37.0092 40.011 36.038 44.69C37.1939 42.0787 39.4569 39.9815 42.3342 38.8551C42.3342 38.8551 44.6982 36.2479 47.4609 32.5247C45.6761 32.8575 43.9128 33.277 42.1789 33.7812C40.8369 34.2852 40.4745 34.4566 40.4745 34.4566C43.0364 33.0771 45.743 31.9249 48.5557 31.0163C53.6862 23.7911 59.2769 13.5319 53.6479 9.03402" fill="#003B57"/>
<defs>
<linearGradient id="paint0_linear_33_96" x1="26.8408" y1="11.954" x2="26.8408" y2="42.8062" gradientUnits="userSpaceOnUse">
<stop stop-color="#97D9F6"/>
<stop offset="0.92" stop-color="#0F80CC"/>
<stop offset="1" stop-color="#0F80CC"/>
</linearGradient>
</defs>
</svg>
