<svg width="64" height="64" viewBox="0 0 64 64" fill="none" xmlns="http://www.w3.org/2000/svg">
<rect x="0.5" y="0.5" width="63" height="63" rx="31.5" stroke="#F8333C"/>
<path d="M44.2325 49.2344C38.5743 52.272 30.7944 52.5842 22.9671 49.4666C16.6295 46.9608 11.371 42.5744 8 37.5627C9.61806 38.8157 11.5058 39.8184 13.5283 40.6951C21.6116 44.216 29.6933 43.9749 35.3806 40.704C27.2902 34.9399 20.405 27.4122 15.2814 21.2728C14.2023 20.2702 13.3932 19.0171 12.5842 17.8893C18.7867 23.1522 28.6302 29.7931 32.1353 31.6736C24.7203 24.4051 18.1127 15.3835 18.3819 15.6337C30.1131 26.6608 41.0355 32.9264 41.0355 32.9264C41.3969 33.1159 41.6758 33.2735 41.9 33.4144C42.1364 32.8555 42.3437 32.2752 42.5184 31.6736C44.406 25.2829 42.2492 18.0144 37.5293 12C48.4506 18.14 54.9236 29.668 52.226 39.3171C52.1557 39.5775 52.0793 39.8344 51.9968 40.0867C57.3896 46.3525 56.0014 53.1015 55.3273 51.8485C52.4017 46.5282 46.986 48.1551 44.2325 49.2344Z" fill="url(#paint0_linear_33_94)"/>
<defs>
<linearGradient id="paint0_linear_33_94" x1="32.0177" y1="12" x2="32.0177" y2="52.0021" gradientUnits="userSpaceOnUse">
<stop stop-color="#F88A36"/>
<stop offset="1" stop-color="#FD2020"/>
</linearGradient>
</defs>
</svg>
